<svg xmlns="http://www.w3.org/2000/svg" xmlns:xlink="http://www.w3.org/1999/xlink" width="1080" zoomAndPan="magnify" viewBox="0 0 810 809.999993" height="1080" preserveAspectRatio="xMidYMid meet" version="1.0"><defs><clipPath id="3a85b3f20c"><path d="M 175.207031 186.6875 L 654.574219 186.6875 L 654.574219 502.410156 L 175.207031 502.410156 Z M 175.207031 186.6875 " clip-rule="nonzero"/></clipPath></defs><g clip-path="url(#3a85b3f20c)"><path fill="#554d35" d="M 215.015625 186.679688 L 614.761719 186.679688 C 625.347656 186.679688 635.410156 190.890625 642.886719 198.371094 C 650.367188 205.855469 654.574219 215.921875 654.574219 226.507812 L 654.574219 462.582031 C 654.574219 473.167969 650.367188 483.234375 642.886719 490.722656 C 635.410156 498.203125 625.347656 502.410156 614.761719 502.410156 L 215.015625 502.410156 C 204.433594 502.410156 194.371094 498.203125 186.894531 490.722656 C 179.414062 483.234375 175.207031 473.167969 175.207031 462.582031 L 175.207031 226.507812 C 175.207031 215.921875 179.414062 205.855469 186.894531 198.371094 C 194.371094 190.890625 204.433594 186.679688 215.015625 186.679688 Z M 614.761719 208.8125 L 215.015625 208.8125 C 210.3125 208.8125 205.855469 210.699219 202.535156 214.023438 C 199.214844 217.347656 197.332031 221.804688 197.332031 226.507812 L 197.332031 462.582031 C 197.332031 467.289062 199.214844 471.746094 202.535156 475.070312 C 205.855469 478.394531 210.3125 480.277344 215.015625 480.277344 L 614.761719 480.277344 C 619.46875 480.277344 623.925781 478.394531 627.246094 475.070312 C 630.570312 471.746094 632.453125 467.289062 632.453125 462.582031 L 632.453125 226.507812 C 632.453125 221.804688 630.570312 217.347656 627.246094 214.023438 C 623.925781 210.699219 619.46875 208.8125 614.761719 208.8125 " fill-opacity="1" fill-rule="evenodd"/></g><path fill="#554d35" d="M 650.886719 255.996094 L 650.886719 314.246094 L 178.894531 314.246094 L 178.894531 248.621094 L 650.886719 248.621094 L 650.886719 255.996094 " fill-opacity="1" fill-rule="nonzero"/><path fill="#554d35" d="M 257.789062 359.296875 C 263.140625 359.296875 268.289062 360.257812 273.070312 362.019531 C 273.492188 362.175781 273.90625 362.335938 274.320312 362.503906 C 272.507812 363.894531 270.773438 365.40625 269.136719 367.046875 C 259.429688 376.757812 254.015625 389.828125 254.015625 403.566406 C 254.015625 417.300781 259.429688 430.371094 269.136719 440.085938 C 270.773438 441.726562 272.507812 443.242188 274.320312 444.628906 C 273.90625 444.796875 273.492188 444.953125 273.070312 445.109375 C 268.289062 446.875 263.140625 447.835938 257.789062 447.835938 C 245.570312 447.835938 234.503906 442.878906 226.5 434.871094 C 218.488281 426.855469 213.539062 415.792969 213.539062 403.566406 C 213.539062 391.34375 218.488281 380.273438 226.5 372.261719 C 234.503906 364.25 245.570312 359.296875 257.789062 359.296875 " fill-opacity="1" fill-rule="nonzero"/><path fill="#554d35" d="M 274.351562 372.261719 C 282.359375 364.25 293.421875 359.296875 305.640625 359.296875 C 317.859375 359.296875 328.925781 364.25 336.929688 372.261719 C 344.933594 380.273438 349.894531 391.34375 349.894531 403.566406 C 349.894531 415.792969 344.933594 426.855469 336.929688 434.871094 C 328.925781 442.878906 317.859375 447.835938 305.640625 447.835938 C 293.421875 447.835938 282.359375 442.878906 274.351562 434.871094 C 266.34375 426.855469 261.390625 415.789062 261.390625 403.566406 C 261.390625 391.34375 266.34375 380.273438 274.351562 372.261719 " fill-opacity="1" fill-rule="nonzero"/><path fill="#554d35" d="M 390.476562 392.496094 L 437.726562 392.496094 C 443.476562 392.496094 448.140625 397.457031 448.140625 403.566406 C 448.140625 409.679688 443.476562 414.632812 437.726562 414.632812 L 390.476562 414.632812 C 384.726562 414.632812 380.058594 409.679688 380.058594 403.566406 C 380.058594 397.457031 384.726562 392.496094 390.476562 392.496094 Z M 472.777344 392.496094 L 520.023438 392.496094 C 525.773438 392.496094 530.441406 397.457031 530.441406 403.566406 C 530.441406 409.679688 525.773438 414.632812 520.023438 414.632812 L 472.777344 414.632812 C 467.023438 414.632812 462.359375 409.679688 462.359375 403.566406 C 462.359375 397.457031 467.023438 392.496094 472.777344 392.496094 Z M 555.070312 392.496094 L 602.316406 392.496094 C 608.070312 392.496094 612.734375 397.457031 612.734375 403.566406 C 612.734375 409.679688 608.070312 414.632812 602.316406 414.632812 L 555.070312 414.632812 C 549.320312 414.632812 544.652344 409.679688 544.652344 403.566406 C 544.652344 397.457031 549.320312 392.496094 555.070312 392.496094 " fill-opacity="1" fill-rule="evenodd"/></svg>