<svg height="1080" preserveAspectRatio="xMidYMid meet" viewBox="0 0 810 809.999993" width="1080" xmlns="http://www.w3.org/2000/svg" xmlns:xlink="http://www.w3.org/1999/xlink" zoomAndPan="magnify"><clipPath id="a"><path d="m172.625 164.128906h514.5v449.25h-514.5zm0 0"/></clipPath><path d="m605.832031 423.507812c0 2.839844-2.3125 5.148438-5.148437 5.148438-2.839844 0-5.148438-2.308594-5.148438-5.148438v-39.554687c0-2.839844 2.308594-5.148437 5.148438-5.148437 2.835937 0 5.148437 2.308593 5.148437 5.148437zm-5.148437-57.660156c-9.988282 0-18.117188 8.121094-18.117188 18.105469v39.554687c0 9.984376 8.128906 18.109376 18.117188 18.109376 9.992187 0 18.117187-8.125 18.117187-18.109376v-39.554687c0-9.984375-8.125-18.105469-18.117187-18.105469" fill="#554d35"/><path d="m600.683594 341.117188c2.65625 0 4.820312 2.160156 4.820312 4.816406 0 2.652344-2.164062 4.8125-4.820312 4.8125s-4.816406-2.160156-4.816406-4.8125c0-2.65625 2.160156-4.816406 4.816406-4.816406zm0 22.59375c9.804687 0 17.785156-7.976563 17.785156-17.777344 0-9.804688-7.980469-17.777344-17.785156-17.777344-9.808594 0-17.789063 7.972656-17.789063 17.777344 0 9.800781 7.980469 17.777344 17.789063 17.777344" fill="#554d35"/><g clip-path="url(#a)"><path d="m600.683594 455.832031c-40.472656 0-73.398438-32.90625-73.398438-73.351562 0-40.4375 32.917969-73.339844 73.386719-73.347657.003906 0 .007813.003907.011719.003907 0 0 .007812-.003907.011718-.003907 40.464844.007813 73.382813 32.910157 73.382813 73.347657 0 40.445312-32.925781 73.351562-73.394531 73.351562zm-6.484375 53.058594-180.21875 70.84375v-289.355469l180.21875-70.839844v76.960938c-44.597657 3.335938-79.886719 40.578125-79.886719 85.980469 0 45.40625 35.289062 82.648437 79.886719 85.984375zm-37.300781-325.382813v36.769532l-118.847657 46.714844zm-155.886719 405.832032c0 6.101562-4.96875 11.074218-11.078125 11.074218-6.105469 0-11.074219-4.972656-11.074219-11.167968v-293.765625l8.699219 3.417969c.070312.027343.140625.015624.210937.039062.691407.246094 1.402344.398438 2.125.40625h.085938c.722656-.007812 1.433593-.160156 2.125-.40625.066406-.023438.140625-.011719.203125-.039062l8.703125-3.417969zm-35.117188-9.605469-180.21875-70.84375v-289.351563l28.289063 11.121094s.003906 0 .007812.003906l151.921875 59.714844zm-142.917969-396.226563 118.847657 83.484376-118.847657-46.714844zm384.195313 112.992188v-86.472656c0-2.140625-1.0625-4.148438-2.835937-5.355469-1.773438-1.207031-4.023438-1.460937-6.027344-.675781l-28.441406 11.179687v-44.144531c0-2.417969-1.347657-4.636719-3.496094-5.75-2.144532-1.113281-4.734375-.941406-6.722656.445312l-169.714844 119.21875-169.714844-119.21875c-1.988281-1.394531-4.570312-1.5625-6.71875-.445312-2.144531 1.113281-3.496094 3.332031-3.496094 5.75v44.144531l-28.441406-11.179687c-2.003906-.785156-4.253906-.53125-6.027344.675781-1.769531 1.207031-2.832031 3.214844-2.832031 5.355469v303.28125c0 2.664062 1.632813 5.054687 4.109375 6.03125l189.5 74.484375c2.105469 11.117187 11.894531 19.550781 23.621094 19.550781 11.703125 0 21.480468-8.394531 23.617187-19.542969l189.507813-74.492187c2.480468-.976563 4.113281-3.367188 4.113281-6.03125v-44.84375c44.589844-3.335938 79.878906-40.578125 79.878906-85.984375 0-45.402344-35.289062-82.644531-79.878906-85.980469" fill="#554d35"/></g></svg>