<svg xmlns="http://www.w3.org/2000/svg" xmlns:xlink="http://www.w3.org/1999/xlink" width="1080" zoomAndPan="magnify" viewBox="0 0 810 809.999993" height="1080" preserveAspectRatio="xMidYMid meet" version="1.0"><defs><clipPath id="61d61472f4"><path d="M 231.316406 152.820312 L 550 152.820312 L 550 568.316406 L 231.316406 568.316406 Z M 231.316406 152.820312 " clip-rule="nonzero"/></clipPath></defs><g clip-path="url(#61d61472f4)"><path fill="#554d35" d="M 536.046875 554.46875 L 245.335938 554.46875 L 245.335938 166.667969 L 536.046875 166.667969 Z M 542.96875 152.820312 L 238.414062 152.820312 C 234.601562 152.820312 231.492188 155.929688 231.492188 159.742188 L 231.492188 561.394531 C 231.492188 565.207031 234.601562 568.320312 238.414062 568.320312 L 542.96875 568.320312 C 546.78125 568.320312 549.890625 565.207031 549.890625 561.394531 L 549.890625 159.742188 C 549.890625 155.929688 546.78125 152.820312 542.96875 152.820312 " fill-opacity="1" fill-rule="nonzero"/></g><path fill="#554d35" d="M 463.207031 521.738281 L 459.558594 510.726562 C 458.339844 507.101562 454.445312 505.128906 450.796875 506.34375 C 447.175781 507.5625 445.226562 511.484375 446.417969 515.109375 L 453.339844 535.882812 C 454.070312 538.074219 455.824219 539.753906 458.070312 540.375 C 458.664062 540.539062 459.285156 540.617188 459.910156 540.617188 C 461.53125 540.617188 463.152344 540.050781 464.425781 538.941406 L 512.875 497.390625 C 515.769531 494.902344 516.09375 490.546875 513.605469 487.625 C 511.144531 484.730469 506.765625 484.40625 503.847656 486.894531 L 463.207031 521.738281 " fill-opacity="1" fill-rule="nonzero"/><path fill="#554d35" d="M 390.691406 194.367188 C 398.316406 194.367188 404.535156 200.589844 404.535156 208.21875 C 404.535156 215.847656 398.316406 222.070312 390.691406 222.070312 C 383.066406 222.070312 376.847656 215.847656 376.847656 208.21875 C 376.847656 200.589844 383.066406 194.367188 390.691406 194.367188 Z M 390.691406 235.917969 C 405.96875 235.917969 418.378906 223.503906 418.378906 208.21875 C 418.378906 192.933594 405.96875 180.519531 390.691406 180.519531 C 375.414062 180.519531 363.003906 192.933594 363.003906 208.21875 C 363.003906 223.503906 375.414062 235.917969 390.691406 235.917969 " fill-opacity="1" fill-rule="nonzero"/><path fill="#554d35" d="M 279.941406 277.46875 L 501.4375 277.46875 C 505.25 277.46875 508.359375 274.359375 508.359375 270.542969 C 508.359375 266.730469 505.25 263.617188 501.4375 263.617188 L 279.941406 263.617188 C 276.132812 263.617188 273.023438 266.730469 273.023438 270.542969 C 273.023438 274.359375 276.132812 277.46875 279.941406 277.46875 " fill-opacity="1" fill-rule="nonzero"/><path fill="#554d35" d="M 279.941406 319.019531 L 501.4375 319.019531 C 505.25 319.019531 508.359375 315.90625 508.359375 312.09375 C 508.359375 308.277344 505.25 305.167969 501.4375 305.167969 L 279.941406 305.167969 C 276.132812 305.167969 273.023438 308.277344 273.023438 312.09375 C 273.023438 315.90625 276.132812 319.019531 279.941406 319.019531 " fill-opacity="1" fill-rule="nonzero"/><path fill="#554d35" d="M 279.941406 353.644531 L 501.4375 353.644531 C 505.25 353.644531 508.359375 350.53125 508.359375 346.71875 C 508.359375 342.902344 505.25 339.792969 501.4375 339.792969 L 279.941406 339.792969 C 276.132812 339.792969 273.023438 342.902344 273.023438 346.71875 C 273.023438 350.53125 276.132812 353.644531 279.941406 353.644531 " fill-opacity="1" fill-rule="nonzero"/><path fill="#554d35" d="M 279.941406 395.195312 L 501.4375 395.195312 C 505.25 395.195312 508.359375 392.082031 508.359375 388.269531 C 508.359375 384.453125 505.25 381.34375 501.4375 381.34375 L 279.941406 381.34375 C 276.132812 381.34375 273.023438 384.453125 273.023438 388.269531 C 273.023438 392.082031 276.132812 395.195312 279.941406 395.195312 " fill-opacity="1" fill-rule="nonzero"/><path fill="#554d35" d="M 279.941406 429.820312 L 501.4375 429.820312 C 505.25 429.820312 508.359375 426.707031 508.359375 422.894531 C 508.359375 419.078125 505.25 415.96875 501.4375 415.96875 L 279.941406 415.96875 C 276.132812 415.96875 273.023438 419.078125 273.023438 422.894531 C 273.023438 426.707031 276.132812 429.820312 279.941406 429.820312 " fill-opacity="1" fill-rule="nonzero"/><path fill="#554d35" d="M 279.941406 512.917969 L 335.316406 512.917969 C 339.128906 512.917969 342.238281 509.808594 342.238281 505.992188 C 342.238281 502.179688 339.128906 499.070312 335.316406 499.070312 L 279.941406 499.070312 C 276.132812 499.070312 273.023438 502.179688 273.023438 505.992188 C 273.023438 509.808594 276.132812 512.917969 279.941406 512.917969 " fill-opacity="1" fill-rule="nonzero"/><path fill="#554d35" d="M 328.394531 526.769531 L 286.863281 526.769531 C 283.050781 526.769531 279.941406 529.878906 279.941406 533.695312 C 279.941406 537.507812 283.050781 540.617188 286.863281 540.617188 L 328.394531 540.617188 C 332.207031 540.617188 335.316406 537.507812 335.316406 533.695312 C 335.316406 529.878906 332.207031 526.769531 328.394531 526.769531 " fill-opacity="1" fill-rule="nonzero"/></svg>