<svg xmlns="http://www.w3.org/2000/svg" xmlns:xlink="http://www.w3.org/1999/xlink" width="1080" zoomAndPan="magnify" viewBox="0 0 810 809.999993" height="1080" preserveAspectRatio="xMidYMid meet" version="1.0"><path fill="#554d35" d="M 552.890625 669.539062 C 550.121094 673.742188 547.601562 673.742188 546.8125 673.742188 C 543.699219 673.742188 539.644531 671.320312 536.035156 667.261719 C 528.375 658.605469 526.152344 643.617188 527.4375 638.175781 C 528.625 638.519531 530.207031 639.113281 531.390625 639.558594 C 536.085938 641.339844 541.867188 643.320312 547.453125 642.230469 C 554.371094 640.84375 557.929688 636.195312 560.054688 633.425781 C 561.488281 631.59375 561.835938 631.199219 562.28125 631.101562 C 564.503906 633.523438 567.222656 647.574219 552.890625 669.539062 Z M 560.746094 612.25 C 551.800781 613.242188 547.601562 618.683594 545.128906 621.898438 C 544.585938 622.640625 543.84375 623.582031 543.84375 623.679688 C 542.757812 623.679688 540.089844 622.691406 538.0625 621.949219 C 534.503906 620.5625 530.351562 618.980469 525.953125 618.980469 C 519.429688 618.980469 514.09375 622.34375 510.980469 628.476562 C 505.097656 639.953125 508.65625 664.839844 522 679.828125 C 529.316406 688.089844 538.164062 692.640625 546.8125 692.640625 C 555.507812 692.640625 563.316406 688.089844 568.65625 679.878906 C 585.410156 654.25 585.113281 633.574219 579.28125 622.839844 C 575.277344 615.417969 568.507812 611.410156 560.746094 612.25 Z M 642.738281 420.949219 C 642.394531 425.648438 642.394531 431.042969 642.441406 436.683594 C 642.542969 454.835938 642.589844 477.445312 629.394531 494.167969 C 623.957031 500.992188 618.671875 507.226562 613.777344 512.964844 C 600.433594 528.746094 589.859375 541.210938 586.695312 553.976562 L 586.25 555.65625 C 582.148438 572.28125 579.082031 580.144531 568.902344 580.691406 C 555.410156 581.382812 548.492188 585.835938 543.894531 588.804688 C 541.175781 590.582031 540.535156 590.878906 539.695312 590.878906 C 538.308594 590.878906 538.113281 590.78125 535.9375 588.902344 C 533.269531 586.675781 529.316406 583.359375 522.445312 582.171875 C 521.0625 581.925781 519.628906 581.828125 518.144531 581.828125 C 514.882812 581.828125 511.574219 582.320312 508.359375 582.816406 C 505.347656 583.3125 502.28125 583.757812 499.464844 583.757812 C 495.957031 583.757812 493.582031 583.015625 491.558594 581.332031 C 487.601562 577.96875 483.648438 575.644531 480.191406 573.617188 C 472.578125 569.210938 471.542969 568.273438 471.789062 563.472656 C 472.53125 548.730469 468.476562 543.933594 460.324219 539.828125 C 458.839844 539.035156 457.355469 538.34375 455.777344 537.105469 C 452.070312 534.238281 451.773438 532.503906 451.871094 523.847656 L 451.871094 521.277344 C 451.921875 516.28125 449.894531 513.210938 448.214844 511.480469 C 445.988281 509.253906 442.925781 508.019531 439.613281 508.019531 C 430.71875 508.019531 420.6875 517.367188 415.742188 523.550781 C 412.136719 521.128906 405.710938 513.707031 403.238281 503.316406 C 399.039062 485.855469 381.742188 474.921875 356.980469 474.230469 C 355.597656 474.179688 354.066406 474.128906 352.484375 474.128906 C 340.175781 474.128906 278.203125 475.664062 264.90625 505.890625 C 264.414062 507.078125 263.917969 508.363281 263.476562 509.699219 C 262.289062 513.261719 261.84375 514.003906 260.757812 514.5 C 259.570312 515.09375 258.730469 515.242188 256.851562 515.242188 C 255.960938 515.242188 254.972656 515.191406 253.886719 515.140625 C 250.574219 515.042969 246.472656 514.894531 240.640625 515.339844 C 217.757812 517.023438 207.085938 525.976562 200.363281 533.59375 C 198.433594 535.820312 193.296875 538.34375 188.796875 538.542969 C 187.859375 538.542969 186.871094 538.589844 185.785156 538.589844 C 177.828125 538.589844 171.847656 537.105469 168.386719 534.089844 C 170.167969 532.207031 172.390625 529.488281 173.179688 525.578125 C 174.21875 520.535156 174.21875 501.835938 160.925781 482.789062 C 156.476562 476.355469 152.769531 466.957031 149.210938 457.90625 C 144.320312 445.535156 139.722656 433.8125 132.359375 427.28125 C 129.097656 424.414062 127.613281 422.632812 126.921875 421.691406 C 126.972656 421.59375 127.070312 421.496094 127.121094 421.394531 C 129.394531 418.277344 134.089844 411.796875 130.132812 400.617188 L 129.246094 398.34375 C 126.425781 390.871094 121.1875 376.972656 125.6875 363.613281 C 127.367188 358.714844 127.367188 358.714844 131.371094 357.875 C 136.363281 356.835938 143.875 355.304688 152.917969 346.894531 C 155.09375 344.816406 157.167969 344.222656 161.222656 343.234375 C 165.914062 342.09375 171.746094 340.710938 177.828125 335.566406 C 183.660156 330.667969 184.054688 330.566406 188.75 328.886719 C 190.183594 328.390625 191.8125 327.796875 193.988281 326.957031 C 195.914062 326.214844 198.289062 325.621094 200.757812 324.976562 C 209.359375 322.75 222.304688 319.386719 226.753906 304.546875 C 228.683594 298.117188 229.570312 297.324219 230.066406 296.878906 C 230.957031 296.085938 232.535156 294.703125 234.019531 292.277344 C 236.539062 288.074219 236.09375 283.421875 235.699219 279.316406 C 235.453125 276.894531 235.207031 273.972656 235.699219 272.339844 C 236.292969 272.339844 236.886719 272.339844 237.527344 272.390625 C 238.515625 272.441406 239.554688 272.488281 240.640625 272.488281 C 244.59375 272.488281 256.703125 272.488281 264.613281 257.304688 C 267.230469 252.304688 267.675781 247.804688 268.121094 244.191406 C 268.566406 239.691406 268.8125 237.664062 272.816406 234.152344 C 278.945312 228.757812 283.09375 226.285156 285.863281 226.285156 C 289.914062 226.285156 296.984375 231.675781 305.089844 238.257812 C 309.339844 241.71875 314.527344 243.648438 319.371094 243.648438 C 327.476562 243.648438 335.777344 237.859375 336.074219 224.898438 C 336.273438 215.996094 340.472656 212.484375 345.316406 208.425781 C 348.628906 205.65625 352.039062 202.785156 353.769531 198.234375 C 354.460938 196.453125 355.054688 194.425781 355.648438 192.300781 C 356.882812 188.09375 358.363281 182.851562 360.738281 181.859375 C 361.332031 181.613281 361.675781 181.5625 361.675781 181.5625 C 362.121094 181.664062 363.257812 182.355469 364.097656 182.851562 C 367.753906 185.027344 373.289062 188.339844 382.484375 188.339844 C 385.003906 188.339844 387.671875 188.09375 390.441406 187.597656 C 392.121094 187.351562 393.601562 187.203125 394.839844 187.203125 C 397.753906 187.203125 398.742188 187.847656 401.558594 189.875 C 404.277344 191.804688 407.984375 194.425781 413.765625 196.15625 C 418.414062 197.542969 424.492188 197.789062 429.976562 196.851562 C 427.308594 202.6875 426.714844 207.832031 428.097656 213.421875 C 426.863281 214.265625 425.183594 215.152344 424.046875 215.796875 C 418.609375 218.816406 412.433594 222.179688 410.902344 229.054688 C 410.058594 232.816406 410.949219 236.773438 413.421875 240.1875 C 417.671875 246.023438 424.9375 249.585938 434.179688 254.039062 C 444.210938 258.933594 455.578125 264.476562 464.621094 273.824219 C 471.640625 281.097656 478.757812 284.757812 485.824219 284.757812 C 495.757812 284.757812 504.210938 277.488281 509.003906 264.722656 C 510.882812 259.875 513.351562 244.390625 516.464844 218.765625 C 517.355469 211.542969 520.125 196.800781 522.59375 186.707031 C 523.632812 190.863281 525.460938 194.078125 527.089844 197 C 529.414062 201.203125 531.6875 205.113281 532.332031 213.125 C 533.269531 224.703125 539.546875 232.121094 551.902344 236.523438 C 556.695312 241.125 559.660156 267.691406 560.796875 277.785156 L 561.144531 280.800781 C 563.316406 299.996094 564.75 312.660156 583.730469 322.011719 C 594.355469 327.203125 595.292969 329.578125 599.644531 340.90625 L 599.890625 341.601562 C 603.101562 349.863281 607.699219 354.164062 611.453125 357.578125 C 614.46875 360.398438 616.644531 362.425781 618.421875 366.730469 C 619.3125 368.757812 619.460938 370.046875 619.660156 371.976562 C 620.351562 377.664062 621.4375 382.757812 628.503906 392.457031 C 631.125 396.066406 633.597656 398.886719 635.722656 401.3125 C 641.503906 407.941406 643.628906 410.363281 642.738281 420.949219 Z M 649.90625 388.941406 C 647.929688 386.667969 645.851562 384.292969 643.777344 381.375 C 639.03125 374.84375 638.734375 372.71875 638.390625 369.699219 C 638.09375 367.273438 637.699219 363.910156 635.820312 359.457031 C 632.460938 351.394531 627.914062 347.140625 624.253906 343.777344 C 621.140625 340.90625 619.117188 339.027344 617.535156 334.773438 L 617.238281 334.082031 C 612.046875 320.625 608.539062 313.203125 592.03125 305.089844 C 582.839844 300.539062 582.050781 297.820312 579.875 278.675781 L 579.527344 275.707031 C 576.167969 245.527344 572.707031 223.8125 558.472656 218.863281 C 551.507812 216.488281 551.359375 214.609375 551.109375 211.542969 C 550.074219 199.472656 546.316406 192.695312 543.550781 187.796875 C 541.820312 184.730469 540.929688 183.046875 540.632812 180.921875 C 539.199219 169.988281 533.070312 158.957031 522.644531 158.957031 C 519.28125 158.957031 514.390625 160.191406 510.140625 165.980469 C 504.011719 174.339844 497.832031 216.09375 497.785156 216.488281 C 494.769531 241.324219 492.347656 255.472656 491.410156 258.042969 C 489.480469 263.191406 486.910156 265.910156 485.824219 265.910156 C 485.527344 265.910156 483.054688 265.761719 478.164062 260.714844 C 466.847656 248.992188 453.304688 242.363281 442.382812 237.117188 C 439.316406 235.585938 435.859375 233.902344 433.089844 232.320312 L 433.140625 232.320312 C 438.921875 229.152344 450.933594 222.523438 446.730469 210.207031 C 445.988281 208.03125 445.496094 206.597656 449.695312 200.410156 C 455.082031 192.398438 453.253906 186.164062 451.671875 183.148438 C 449.152344 178.398438 443.816406 175.28125 438.132812 175.28125 C 435.90625 175.28125 433.78125 175.777344 431.953125 176.714844 C 429.730469 177.902344 426.46875 178.546875 423.257812 178.546875 C 421.675781 178.546875 420.140625 178.398438 419.105469 178.050781 C 416.335938 177.261719 414.65625 176.023438 412.480469 174.488281 C 408.824219 171.917969 403.785156 168.304688 394.886719 168.304688 C 392.515625 168.304688 390.042969 168.554688 387.226562 169.046875 C 385.546875 169.34375 383.917969 169.492188 382.53125 169.492188 C 378.480469 169.492188 376.503906 168.304688 373.785156 166.671875 C 370.96875 164.992188 367.113281 162.714844 361.773438 162.714844 C 359.105469 162.714844 356.4375 163.261719 353.570312 164.445312 C 342.746094 168.898438 339.632812 179.882812 337.558594 187.105469 C 337.113281 188.6875 336.667969 190.222656 336.421875 191.0625 C 336.027344 191.65625 334.394531 192.992188 333.210938 193.980469 C 327.476562 198.78125 317.886719 206.792969 317.296875 223.859375 C 317.148438 223.761719 317.046875 223.710938 316.949219 223.613281 C 304.839844 213.820312 296.191406 207.386719 285.863281 207.386719 C 276.078125 207.386719 267.824219 213.421875 260.410156 219.953125 C 250.871094 228.3125 249.984375 236.328125 249.390625 242.164062 C 249.042969 245.082031 248.847656 246.816406 247.90625 248.597656 C 245.289062 253.59375 243.3125 253.59375 240.640625 253.59375 C 239.851562 253.59375 239.058594 253.59375 238.320312 253.542969 C 237.332031 253.492188 236.390625 253.492188 235.503906 253.492188 C 232.042969 253.492188 227 253.9375 222.898438 258.042969 C 215.4375 265.515625 216.375 275.308594 216.96875 281.097656 C 217.019531 281.742188 217.117188 282.484375 217.117188 283.175781 C 213.855469 286.195312 211.484375 289.804688 208.714844 299.15625 C 207.480469 303.210938 204.910156 304.398438 196.0625 306.675781 C 193.195312 307.417969 190.183594 308.207031 187.214844 309.34375 C 185.238281 310.085938 183.707031 310.632812 182.421875 311.125 C 176.144531 313.351562 173.824219 314.390625 165.765625 321.121094 C 163 323.394531 160.378906 324.039062 156.773438 324.929688 C 151.929688 326.066406 145.949219 327.550781 140.019531 333.089844 C 134.878906 337.890625 131.519531 338.582031 127.5625 339.375 C 119.855469 340.957031 112.539062 343.578125 107.84375 357.53125 C 101.171875 377.316406 108.242188 395.96875 111.601562 404.972656 L 112.34375 407 C 112.738281 408.1875 112.789062 408.832031 112.789062 408.929688 C 112.6875 409.175781 112.195312 409.917969 111.847656 410.363281 C 110.910156 411.648438 110.070312 412.886719 109.476562 414.222656 C 104.089844 425.351562 111.699219 434.257812 119.855469 441.429688 C 123.808594 444.945312 127.960938 455.53125 131.617188 464.832031 C 135.621094 474.921875 139.722656 485.359375 145.457031 493.574219 C 153.808594 505.59375 154.894531 517.464844 154.746094 521.027344 C 154.546875 521.277344 154.300781 521.472656 154.105469 521.722656 C 147.035156 528.597656 146.246094 535.96875 151.632812 543.636719 C 158.105469 552.789062 169.621094 557.4375 185.785156 557.4375 C 187.117188 557.4375 188.402344 557.4375 189.589844 557.390625 C 198.878906 556.945312 208.863281 552.441406 214.496094 546.058594 C 217.757812 542.351562 223.839844 535.472656 242.027344 534.136719 C 246.96875 533.742188 250.425781 533.890625 253.246094 533.988281 C 254.53125 534.039062 255.714844 534.089844 256.851562 534.089844 C 260.113281 534.089844 264.066406 533.792969 268.761719 531.566406 C 277.3125 527.558594 279.785156 520.1875 281.316406 515.785156 C 281.5625 514.992188 281.808594 514.203125 282.105469 513.507812 C 287.988281 500.203125 322.730469 492.980469 352.433594 492.980469 C 353.867188 492.980469 355.203125 493.027344 356.386719 493.078125 C 363.949219 493.277344 381.890625 495.15625 384.90625 507.722656 C 389.5 526.964844 404.277344 543.191406 417.128906 543.191406 C 422.21875 543.191406 426.714844 540.765625 429.582031 536.511719 C 430.519531 535.078125 431.855469 533.542969 433.238281 532.160156 C 433.882812 538.9375 436.253906 545.914062 444.261719 552.097656 C 447.273438 554.371094 449.945312 555.707031 451.820312 556.648438 C 452.21875 556.84375 452.5625 556.992188 452.859375 557.191406 C 452.957031 557.984375 453.105469 559.566406 452.910156 562.484375 C 452.070312 579.105469 462.84375 585.339844 470.699219 589.941406 C 473.617188 591.621094 476.679688 593.453125 479.398438 595.730469 C 484.886719 600.378906 491.457031 602.605469 499.464844 602.605469 C 503.664062 602.605469 507.667969 602.011719 511.179688 601.46875 C 514.390625 600.972656 517.304688 600.429688 519.234375 600.773438 C 520.964844 601.070312 521.753906 601.664062 523.78125 603.347656 C 526.796875 605.871094 531.390625 609.730469 539.695312 609.730469 C 546.21875 609.730469 550.566406 606.910156 554.074219 604.683594 C 557.832031 602.257812 561.390625 599.933594 569.890625 599.488281 C 595.046875 598.203125 600.730469 575.347656 604.488281 560.210938 L 604.929688 558.578125 C 607.054688 550.066406 616.347656 539.085938 628.160156 525.183594 C 633.101562 519.296875 638.539062 512.914062 644.121094 505.890625 C 661.46875 484.023438 661.371094 456.617188 661.273438 436.582031 C 661.273438 431.339844 661.222656 426.390625 661.519531 422.484375 C 663.050781 403.933594 656.675781 396.660156 649.90625 388.941406 " fill-opacity="1" fill-rule="nonzero"/></svg>