<svg height="1080" preserveAspectRatio="xMidYMid meet" viewBox="0 0 810 809.999993" width="1080" xmlns="http://www.w3.org/2000/svg" zoomAndPan="magnify"><path d="m552.890625 669.539062c-2.769531 4.203126-5.289063 4.203126-6.078125 4.203126-3.113281 0-7.167969-2.421876-10.777344-6.480469-7.660156-8.65625-9.882812-23.644531-8.597656-29.085938 1.1875.34375 2.769531.9375 3.953125 1.382813 4.695313 1.78125 10.476563 3.761718 16.0625 2.671875 6.917969-1.386719 10.476563-6.035157 12.601563-8.804688 1.433593-1.832031 1.78125-2.226562 2.226562-2.324219 2.222656 2.421876 4.941406 16.472657-9.390625 38.4375zm7.855469-57.289062c-8.945313.992188-13.144532 6.433594-15.617188 9.648438-.542968.742187-1.285156 1.683593-1.285156 1.78125-1.085938 0-3.753906-.988282-5.78125-1.730469-3.558594-1.386719-7.710938-2.96875-12.109375-2.96875-6.523437 0-11.859375 3.363281-14.972656 9.496093-5.882813 11.476563-2.324219 36.363282 11.019531 51.351563 7.316406 8.261719 16.164062 12.8125 24.8125 12.8125 8.695312 0 16.503906-4.550781 21.84375-12.761719 16.753906-25.628906 16.457031-46.304687 10.625-57.039062-4.003906-7.421875-10.773438-11.429688-18.535156-10.589844zm81.992187-191.300781c-.34375 4.699219-.34375 10.09375-.296875 15.734375.101563 18.152344.148438 40.761718-13.046875 57.484375-5.4375 6.824219-10.722656 13.058593-15.617187 18.796875-13.34375 15.78125-23.917969 28.246094-27.082032 41.011718l-.445312 1.679688c-4.101562 16.625-7.167969 24.488281-17.347656 25.035156-13.492188.691406-20.410156 5.144532-25.007813 8.113282-2.71875 1.777343-3.359375 2.074218-4.199219 2.074218-1.386718 0-1.582031-.097656-3.757812-1.976562-2.667969-2.226563-6.621094-5.542969-13.492188-6.730469-1.382812-.246094-2.816406-.34375-4.300781-.34375-3.261719 0-6.570312.492187-9.785156.988281-3.011719.496094-6.078125.941406-8.894531.941406-3.507813 0-5.882813-.742187-7.90625-2.425781-3.957032-3.363281-7.910156-5.6875-11.367188-7.714843-7.613281-4.40625-8.648437-5.34375-8.402344-10.144532.742188-14.742187-3.3125-19.539062-11.464843-23.644531-1.484375-.792969-2.96875-1.484375-4.546875-2.722656-3.707032-2.867188-4.003906-4.601563-3.90625-13.257813v-2.570312c.050781-4.996094-1.976563-8.066406-3.65625-9.796875-2.226563-2.226563-5.289063-3.460938-8.601563-3.460938-8.894531 0-18.925781 9.347657-23.871093 15.53125-3.605469-2.421875-10.03125-9.84375-12.503907-20.234375-4.199219-17.460937-21.496093-28.394531-46.257812-29.085937-1.382813-.050781-2.914063-.101563-4.496094-.101563-12.308594 0-74.28125 1.535156-87.578125 31.761719-.492188 1.1875-.988281 2.472656-1.429688 3.808594-1.1875 3.5625-1.632812 4.304687-2.71875 4.800781-1.1875.59375-2.027343.742188-3.90625.742188-.890624 0-1.878906-.050782-2.964843-.101563-3.3125-.097656-7.414063-.246094-13.246094.199219-22.882813 1.683594-33.554687 10.636718-40.277344 18.253906-1.929687 2.226562-7.066406 4.75-11.566406 4.949219-.9375 0-1.925781.046875-3.011719.046875-7.957031 0-13.9375-1.484375-17.398437-4.5 1.78125-1.882813 4.003906-4.601563 4.792969-8.511719 1.039062-5.042969 1.039062-23.742187-12.253907-42.789063-4.449219-6.433593-8.15625-15.832031-11.714843-24.882812-4.890626-12.371094-9.488282-24.09375-16.851563-30.625-3.261719-2.867188-4.746094-4.648438-5.4375-5.589844.050781-.097656.148437-.195312.199219-.296875 2.273437-3.117187 6.96875-9.597656 3.011718-20.777343l-.886718-2.273438c-2.820313-7.472656-8.058594-21.371094-3.558594-34.730469 1.679688-4.898437 1.679688-4.898437 5.683594-5.738281 4.992187-1.039062 12.503906-2.570312 21.546875-10.980469 2.175781-2.078125 4.25-2.671875 8.304687-3.660156 4.691406-1.140625 10.523438-2.523437 16.605469-7.667969 5.832031-4.898437 6.226563-5 10.921875-6.679687 1.433594-.496094 3.0625-1.089844 5.238281-1.929688 1.925781-.742187 4.300781-1.335937 6.769531-1.980469 8.601563-2.226562 21.546876-5.589843 25.996094-20.429687 1.929688-6.429687 2.816406-7.222656 3.3125-7.667969.890625-.792968 2.46875-2.175781 3.953125-4.601562 2.519531-4.203125 2.074219-8.855469 1.679688-12.960938-.246094-2.421875-.492188-5.34375 0-6.976562.59375 0 1.1875 0 1.828125.050781.988281.050781 2.027344.097656 3.113281.097656 3.953125 0 16.0625 0 23.972656-15.183593 2.617188-5 3.0625-9.5 3.507813-13.113282.445312-4.5.691406-6.527344 4.695312-10.039062 6.128906-5.394532 10.277344-7.867188 13.046875-7.867188 4.050781 0 11.121094 5.390625 19.226563 11.972656 4.25 3.460938 9.4375 5.390626 14.28125 5.390626 8.105468 0 16.40625-5.789063 16.703125-18.75.199219-8.902344 4.398437-12.414063 9.242187-16.472657 3.3125-2.769531 6.722656-5.640625 8.453125-10.191406.691407-1.78125 1.285157-3.808594 1.878907-5.933594 1.234374-4.207031 2.714843-9.449219 5.089843-10.441406.59375-.246094.9375-.296875.9375-.296875.445313.101562 1.582031.792969 2.421875 1.289062 3.65625 2.175782 9.191406 5.488282 18.386719 5.488282 2.519531 0 5.1875-.246094 7.957031-.742188 1.679688-.246094 3.160156-.394531 4.398438-.394531 2.914062 0 3.902344.644531 6.71875 2.671875 2.71875 1.929688 6.425781 4.550781 12.207031 6.28125 4.648437 1.386719 10.726563 1.632812 16.210937.695312-2.667968 5.835938-3.261718 10.980469-1.878906 16.570313-1.234375.84375-2.914062 1.730469-4.050781 2.375-5.4375 3.019531-11.613281 6.382813-13.144531 13.257813-.84375 3.761718.046875 7.71875 2.519531 11.132812 4.25 5.835938 11.515625 9.398438 20.757813 13.851562 10.03125 4.894532 21.398437 10.4375 30.441406 19.785157 7.019531 7.273437 14.136718 10.933593 21.203125 10.933593 9.933593 0 18.386719-7.269531 23.179687-20.035156 1.878906-4.847656 4.347656-20.332031 7.460938-45.957031.890625-7.222656 3.660156-21.964844 6.128906-32.058594 1.039062 4.15625 2.867188 7.371094 4.496094 10.292969 2.324218 4.203125 4.597656 8.113281 5.242187 16.125.9375 11.578125 7.214844 18.996094 19.570313 23.398438 4.792968 4.601562 7.757812 31.167968 8.894531 41.261718l.347656 3.015625c2.171875 19.195313 3.605469 31.859375 22.585938 41.210938 10.625 5.191406 11.5625 7.566406 15.914062 18.894531l.246094.695312c3.210937 8.261719 7.808594 12.5625 11.5625 15.976563 3.015625 2.820313 5.191406 4.847656 6.96875 9.152344.890625 2.027343 1.039063 3.316406 1.238281 5.246093.691406 5.6875 1.777344 10.78125 8.84375 20.480469 2.621094 3.609375 5.09375 6.429688 7.21875 8.855469 5.78125 6.628906 7.90625 9.050781 7.015625 19.636719zm7.167969-32.007813c-1.976562-2.273437-4.054688-4.648437-6.128906-7.566406-4.746094-6.53125-5.042969-8.65625-5.386719-11.675781-.296875-2.425781-.691406-5.789063-2.570313-10.242188-3.359374-8.0625-7.90625-12.316406-11.566406-15.679687-3.113281-2.871094-5.136718-4.75-6.71875-9.003906l-.296875-.691407c-5.191406-13.457031-8.699219-20.878906-25.207031-28.992187-9.191406-4.550782-9.980469-7.269532-12.15625-26.414063l-.347656-2.96875c-3.359375-30.179687-6.820313-51.894531-21.054688-56.84375-6.964844-2.375-7.113281-4.253906-7.363281-7.320312-1.035156-12.070313-4.792969-18.847657-7.558594-23.746094-1.730469-3.066406-2.621093-4.75-2.917969-6.875-1.433593-10.933594-7.5625-21.964844-17.988281-21.964844-3.363281 0-8.253906 1.234375-12.503906 7.023438-6.128906 8.359375-12.308594 50.113281-12.355469 50.507812-3.015625 24.835938-5.4375 38.984375-6.375 41.554688-1.929687 5.148437-4.5 7.867187-5.585937 7.867187-.296875 0-2.769531-.148437-7.660157-5.195312-11.316406-11.722656-24.859374-18.351563-35.78125-23.597656-3.066406-1.53125-6.523437-3.214844-9.292968-4.796876h.050781c5.78125-3.167968 17.792969-9.796874 13.589844-22.113281-.742188-2.175781-1.234375-3.609375 2.964843-9.796875 5.386719-8.011718 3.558594-14.246094 1.976563-17.261718-2.519531-4.75-7.855469-7.867188-13.539063-7.867188-2.226562 0-4.351562.496094-6.179687 1.433594-2.222656 1.1875-5.484375 1.832031-8.695313 1.832031-1.582031 0-3.117187-.148437-4.152343-.496094-2.769531-.789062-4.449219-2.027343-6.625-3.5625-3.65625-2.570312-8.695313-6.183593-17.59375-6.183593-2.371094 0-4.84375.25-7.660157.742187-1.679687.296875-3.308593.445313-4.695312.445313-4.050781 0-6.027344-1.1875-8.746094-2.820313-2.816406-1.679687-6.671875-3.957031-12.011718-3.957031-2.667969 0-5.335938.546875-8.203126 1.730468-10.824218 4.453126-13.9375 15.4375-16.011718 22.660157-.445313 1.582031-.890625 3.117187-1.136719 3.957031-.394531.59375-2.027344 1.929688-3.210937 2.917969-5.734376 4.800781-15.324219 12.8125-15.914063 29.878906-.148437-.097656-.25-.148437-.347656-.246094-12.109375-9.792969-20.757813-16.226562-31.085938-16.226562-9.785156 0-18.039062 6.035156-25.453125 12.566406-9.539062 8.359375-10.425781 16.375-11.019531 22.210937-.347656 2.917969-.542969 4.652344-1.484375 6.433594-2.617188 4.996094-4.59375 4.996094-7.265625 4.996094-.789063 0-1.582031 0-2.320313-.050781-.988281-.050781-1.929687-.050781-2.816406-.050781-3.460937 0-8.503906.445312-12.605468 4.550781-7.460938 7.472656-6.523438 17.265625-5.929688 23.054687.050781.644532.148438 1.386719.148438 2.078125-3.261719 3.019531-5.632813 6.628907-8.402344 15.980469-1.234375 4.054688-3.804688 5.242188-12.652344 7.519531-2.867188.742188-5.878906 1.53125-8.847656 2.667969-1.976563.742188-3.507813 1.289062-4.792969 1.78125-6.277344 2.226562-8.597656 3.265625-16.65625 9.996094-2.765625 2.273437-5.386719 2.917968-8.992187 3.808594-4.84375 1.136718-10.824219 2.621093-16.753907 8.160156-5.140625 4.800781-8.5 5.492187-12.457031 6.285156-7.707031 1.582031-15.023438 4.203125-19.71875 18.15625-6.671875 19.785156.398438 38.4375 3.757812 47.441406l.742188 2.027344c.394531 1.1875.445312 1.832031.445312 1.929688-.101562.246093-.59375.988281-.941406 1.433593-.9375 1.285157-1.777344 2.523438-2.371094 3.859375-5.386718 11.128906 2.222657 20.035156 10.378907 27.207032 3.953125 3.515624 8.105469 14.101562 11.761719 23.402343 4.003906 10.089844 8.105468 20.527344 13.839843 28.742188 8.351563 12.019531 9.4375 23.890625 9.289063 27.453125-.199219.25-.445313.445312-.640625.695312-7.070313 6.875-7.859375 14.246094-2.472657 21.914063 6.472657 9.152343 17.988282 13.800781 34.152344 13.800781 1.332032 0 2.617188 0 3.804688-.046875 9.289062-.445313 19.273437-4.949219 24.90625-11.332031 3.261718-3.707032 9.34375-10.585938 27.53125-11.921875 4.941406-.394531 8.398437-.246094 11.21875-.148438 1.285156.050781 2.46875.101563 3.605468.101563 3.261719 0 7.214844-.296875 11.910157-2.523438 8.550781-4.007812 11.023437-11.378906 12.554687-15.78125.246094-.792968.492188-1.582031.789063-2.277344 5.882812-13.304687 40.625-20.527343 70.328125-20.527343 1.433594 0 2.769531.046875 3.953125.097656 7.5625.199219 25.503906 2.078125 28.519531 14.644531 4.59375 19.242188 19.371094 35.46875 32.222656 35.46875 5.089844 0 9.585938-2.425781 12.453125-6.679687.9375-1.433594 2.273438-2.96875 3.65625-4.351563.644531 6.777344 3.015625 13.753906 11.023438 19.9375 3.011719 2.273438 5.683593 3.609375 7.558593 4.550782.398438.195312.742188.34375 1.039063.542968.097656.792969.246094 2.375.050781 5.292969-.839844 16.621094 9.933594 22.855469 17.789063 27.457031 2.917969 1.679688 5.980469 3.511719 8.699219 5.789063 5.488281 4.648437 12.058593 6.875 20.066406 6.875 4.199218 0 8.203125-.59375 11.714844-1.136719 3.210937-.496094 6.125-1.039062 8.054687-.695312 1.730469.296874 2.519531.890624 4.546875 2.574218 3.015625 2.523438 7.609375 6.382813 15.914062 6.382813 6.523438 0 10.871094-2.820313 14.378907-5.046875 3.757812-2.425782 7.316406-4.75 15.816406-5.195313 25.15625-1.285156 30.839844-24.140625 34.597656-39.277343l.441407-1.632813c2.125-8.511719 11.417968-19.492187 23.230468-33.394531 4.941406-5.886719 10.378906-12.269532 15.960938-19.292969 17.347656-21.867187 17.25-49.273437 17.152344-69.308594 0-5.242187-.050782-10.191406.246093-14.097656 1.53125-18.550781-4.84375-25.824219-11.613281-33.542969" fill="#554d35"/></svg>