<svg xmlns="http://www.w3.org/2000/svg" xmlns:xlink="http://www.w3.org/1999/xlink" width="1080" zoomAndPan="magnify" viewBox="0 0 810 809.999993" height="1080" preserveAspectRatio="xMidYMid meet" version="1.0"><defs><clipPath id="71fecd8722"><path d="M 157.675781 183 L 580 183 L 580 605.117188 L 157.675781 605.117188 Z M 157.675781 183 " clip-rule="nonzero"/></clipPath><clipPath id="1f51c2969a"><path d="M 434 116.15625 L 646.636719 116.15625 L 646.636719 329 L 434 329 Z M 434 116.15625 " clip-rule="nonzero"/></clipPath></defs><g clip-path="url(#71fecd8722)"><path fill="#554d35" d="M 439.382812 195.25 L 343.992188 290.640625 C 336.085938 298.542969 334.722656 310.425781 340.34375 322.421875 C 348.921875 340.722656 356.449219 367.890625 343.605469 393.421875 C 341.09375 398.414062 337.824219 402.234375 333.3125 405.445312 C 195.648438 503.414062 162.816406 571.75 168.488281 589.492188 C 169.226562 591.824219 171.011719 594.929688 177.851562 594.929688 C 199.207031 594.933594 264.203125 560.359375 357.339844 429.480469 C 360.554688 424.96875 364.378906 421.691406 369.371094 419.183594 C 378.429688 414.625 388.425781 412.3125 399.070312 412.3125 C 412.132812 412.3125 426.027344 415.722656 440.375 422.445312 C 445.179688 424.691406 449.996094 425.839844 454.6875 425.839844 C 461.507812 425.839844 467.546875 423.402344 472.152344 418.800781 L 567.542969 323.414062 Z M 177.851562 605.117188 C 177.851562 605.117188 177.851562 605.117188 177.847656 605.117188 C 168.128906 605.117188 161.363281 600.671875 158.78125 592.597656 C 149.023438 562.046875 203.808594 485.105469 327.402344 397.148438 C 330.597656 394.875 332.722656 392.390625 334.503906 388.84375 C 345.511719 366.96875 338.738281 342.996094 331.121094 326.746094 C 323.710938 310.933594 325.878906 294.339844 336.789062 283.4375 L 435.78125 184.445312 C 437.6875 182.535156 441.070312 182.535156 442.984375 184.445312 L 578.347656 319.8125 C 579.300781 320.765625 579.839844 322.066406 579.839844 323.414062 C 579.839844 324.761719 579.300781 326.058594 578.347656 327.015625 L 479.355469 426 C 472.894531 432.464844 464.132812 436.027344 454.6875 436.027344 C 448.492188 436.027344 442.214844 434.558594 436.050781 431.667969 C 412.914062 420.828125 391.332031 419.535156 373.945312 428.285156 C 370.402344 430.074219 367.914062 432.191406 365.644531 435.390625 C 282.199219 552.636719 211.203125 605.117188 177.851562 605.117188 " fill-opacity="1" fill-rule="evenodd"/></g><path fill="#554d35" d="M 542.050781 361.199219 C 543.351562 361.199219 544.65625 360.703125 545.652344 359.707031 C 547.640625 357.71875 547.640625 354.496094 545.652344 352.503906 L 410.28125 217.140625 C 408.296875 215.152344 405.070312 215.152344 403.078125 217.140625 C 401.089844 219.132812 401.089844 222.355469 403.078125 224.34375 L 538.449219 359.707031 C 539.445312 360.703125 540.75 361.199219 542.050781 361.199219 Z M 481.246094 422 C 479.949219 422 478.640625 421.5 477.644531 420.507812 L 342.28125 285.140625 C 340.292969 283.152344 340.292969 279.929688 342.28125 277.9375 C 344.273438 275.949219 347.496094 275.949219 349.484375 277.9375 L 484.851562 413.300781 C 486.839844 415.292969 486.839844 418.515625 484.851562 420.507812 C 483.855469 421.5 482.554688 422 481.246094 422 " fill-opacity="1" fill-rule="evenodd"/><g clip-path="url(#1f51c2969a)"><path fill="#554d35" d="M 574.75 328.507812 C 573.070312 328.507812 571.433594 327.683594 570.460938 326.175781 C 568.941406 323.804688 569.621094 320.65625 571.984375 319.132812 C 572.386719 318.871094 612.511719 292.878906 634.515625 267.722656 C 637.238281 264.609375 637.082031 259.882812 634.152344 256.960938 L 505.832031 128.632812 C 502.910156 125.710938 498.179688 125.550781 495.0625 128.277344 C 469.894531 150.300781 443.914062 190.40625 443.65625 190.808594 C 442.132812 193.171875 438.988281 193.851562 436.617188 192.328125 C 434.257812 190.804688 433.570312 187.65625 435.09375 185.285156 C 436.1875 183.597656 462.117188 143.5625 488.359375 120.605469 C 495.488281 114.367188 506.328125 114.730469 513.035156 121.429688 L 641.355469 249.757812 C 648.0625 256.457031 648.421875 267.300781 642.179688 274.433594 C 619.222656 300.671875 579.195312 326.605469 577.503906 327.691406 C 576.648438 328.246094 575.695312 328.507812 574.75 328.507812 " fill-opacity="1" fill-rule="evenodd"/></g><path fill="#554d35" d="M 557.824219 311.585938 C 556.246094 311.585938 554.683594 310.851562 553.691406 309.472656 C 552.046875 307.1875 552.558594 304.003906 554.84375 302.363281 C 555.328125 302.011719 603.785156 266.933594 623.726562 240.34375 C 625.410156 238.09375 628.609375 237.636719 630.859375 239.324219 C 633.105469 241.011719 633.5625 244.207031 631.875 246.457031 C 611 274.285156 562.839844 309.15625 560.800781 310.621094 C 559.898438 311.269531 558.855469 311.585938 557.824219 311.585938 " fill-opacity="1" fill-rule="evenodd"/><path fill="#554d35" d="M 540.90625 294.667969 C 539.417969 294.667969 537.941406 294.015625 536.9375 292.765625 C 535.167969 290.574219 535.515625 287.371094 537.707031 285.601562 C 538.175781 285.230469 584.597656 247.761719 605.808594 222.085938 C 607.59375 219.917969 610.808594 219.613281 612.972656 221.40625 C 615.144531 223.195312 615.453125 226.40625 613.660156 228.574219 C 591.785156 255.054688 546.035156 291.976562 544.097656 293.535156 C 543.15625 294.300781 542.023438 294.667969 540.90625 294.667969 " fill-opacity="1" fill-rule="evenodd"/><path fill="#554d35" d="M 523.980469 277.746094 C 522.585938 277.746094 521.199219 277.175781 520.191406 276.050781 C 518.3125 273.957031 518.488281 270.742188 520.582031 268.859375 C 521.027344 268.460938 565.390625 228.59375 587.890625 203.839844 C 589.789062 201.753906 593.007812 201.601562 595.089844 203.496094 C 597.167969 205.386719 597.324219 208.605469 595.433594 210.6875 C 572.578125 235.828125 527.835938 276.035156 527.386719 276.441406 C 526.410156 277.316406 525.191406 277.746094 523.980469 277.746094 " fill-opacity="1" fill-rule="evenodd"/><path fill="#554d35" d="M 507.058594 260.820312 C 505.761719 260.820312 504.453125 260.324219 503.457031 259.328125 C 501.46875 257.339844 501.46875 254.117188 503.457031 252.125 L 569.992188 185.59375 C 571.984375 183.601562 575.210938 183.601562 577.195312 185.59375 C 579.1875 187.582031 579.1875 190.804688 577.195312 192.796875 L 510.664062 259.328125 C 509.667969 260.324219 508.367188 260.820312 507.058594 260.820312 " fill-opacity="1" fill-rule="evenodd"/><path fill="#554d35" d="M 490.140625 243.90625 C 488.921875 243.90625 487.710938 243.472656 486.734375 242.601562 C 484.640625 240.71875 484.472656 237.503906 486.347656 235.410156 C 486.75 234.957031 526.964844 190.214844 552.105469 167.359375 C 554.183594 165.46875 557.40625 165.621094 559.296875 167.703125 C 561.1875 169.785156 561.039062 173.003906 558.953125 174.894531 C 534.195312 197.402344 494.332031 241.765625 493.929688 242.210938 C 492.921875 243.332031 491.535156 243.90625 490.140625 243.90625 " fill-opacity="1" fill-rule="evenodd"/><path fill="#554d35" d="M 473.214844 226.980469 C 472.097656 226.980469 470.964844 226.613281 470.023438 225.859375 C 467.832031 224.089844 467.484375 220.886719 469.25 218.695312 C 470.8125 216.757812 507.734375 171.007812 534.214844 149.136719 C 536.386719 147.34375 539.59375 147.648438 541.386719 149.8125 C 543.179688 151.984375 542.875 155.199219 540.703125 156.984375 C 515.015625 178.207031 477.558594 224.617188 477.183594 225.085938 C 476.179688 226.335938 474.707031 226.980469 473.214844 226.980469 " fill-opacity="1" fill-rule="evenodd"/><path fill="#554d35" d="M 456.296875 210.0625 C 455.265625 210.0625 454.222656 209.75 453.320312 209.097656 C 451.039062 207.457031 450.523438 204.273438 452.164062 201.988281 C 453.636719 199.953125 488.503906 151.789062 516.335938 130.917969 C 518.589844 129.230469 521.78125 129.6875 523.46875 131.9375 C 525.15625 134.183594 524.699219 137.382812 522.445312 139.066406 C 495.847656 159.019531 460.785156 207.460938 460.429688 207.949219 C 459.4375 209.328125 457.875 210.0625 456.296875 210.0625 " fill-opacity="1" fill-rule="evenodd"/><path fill="#554d35" d="M 205.359375 549.546875 C 203.25 549.546875 201.269531 550.371094 199.78125 551.859375 C 196.710938 554.933594 196.710938 559.933594 199.78125 563.011719 C 201.269531 564.5 203.25 565.316406 205.359375 565.316406 C 207.460938 565.316406 209.441406 564.5 210.933594 563.011719 C 214.007812 559.933594 214.007812 554.933594 210.933594 551.859375 C 209.441406 550.371094 207.460938 549.546875 205.359375 549.546875 Z M 205.359375 575.503906 C 200.527344 575.503906 195.988281 573.628906 192.578125 570.210938 C 185.53125 563.167969 185.53125 551.699219 192.578125 544.65625 C 195.988281 541.242188 200.527344 539.359375 205.351562 539.359375 C 210.183594 539.359375 214.722656 541.242188 218.132812 544.65625 C 225.179688 551.699219 225.179688 563.167969 218.132812 570.210938 C 214.722656 573.628906 210.1875 575.503906 205.359375 575.503906 " fill-opacity="1" fill-rule="evenodd"/></svg>