<svg xmlns="http://www.w3.org/2000/svg" xmlns:xlink="http://www.w3.org/1999/xlink" width="1080" zoomAndPan="magnify" viewBox="0 0 810 809.999993" height="1080" preserveAspectRatio="xMidYMid meet" version="1.0"><defs><clipPath id="908420c887"><path d="M 157.453125 287.105469 L 652.453125 287.105469 L 652.453125 522 L 157.453125 522 Z M 157.453125 287.105469 " clip-rule="nonzero"/></clipPath></defs><path fill="#554d35" d="M 295.976562 395.460938 C 328.398438 395.460938 353.800781 381.402344 353.800781 363.453125 C 353.800781 345.507812 328.398438 331.445312 295.976562 331.445312 C 263.554688 331.445312 238.148438 345.507812 238.148438 363.453125 C 238.148438 381.402344 263.5625 395.460938 295.976562 395.460938 Z M 295.976562 342.695312 C 323.402344 342.695312 342.550781 353.644531 342.550781 363.464844 C 342.550781 373.289062 323.414062 384.234375 295.976562 384.234375 C 268.535156 384.234375 249.398438 373.289062 249.398438 363.464844 C 249.398438 353.644531 268.523438 342.695312 295.976562 342.695312 Z M 295.976562 342.695312 " fill-opacity="1" fill-rule="nonzero"/><g clip-path="url(#908420c887)"><path fill="#554d35" d="M 646.828125 428.761719 L 434.484375 428.761719 L 434.484375 363.476562 C 434.484375 320.558594 373.644531 286.941406 295.964844 286.941406 C 218.28125 286.941406 157.453125 320.546875 157.453125 363.476562 L 157.453125 445.125 C 157.453125 488.03125 218.304688 521.65625 295.976562 521.65625 L 646.828125 521.65625 C 649.933594 521.65625 652.453125 519.140625 652.453125 516.039062 L 652.453125 434.378906 C 652.453125 431.265625 649.933594 428.761719 646.828125 428.761719 Z M 423.234375 428.761719 L 368.941406 428.761719 C 392.996094 420.644531 412.054688 408.644531 423.234375 394.144531 Z M 295.976562 298.179688 C 364.960938 298.179688 423.246094 328.085938 423.246094 363.476562 C 423.246094 398.867188 364.949219 428.773438 295.976562 428.773438 C 227 428.773438 168.703125 398.867188 168.703125 363.476562 C 168.703125 328.074219 226.992188 298.179688 295.976562 298.179688 Z M 168.703125 445.125 L 168.703125 394.144531 C 189.730469 421.367188 238.160156 440 295.976562 440 L 641.203125 440 L 641.203125 510.417969 L 593.988281 510.417969 L 593.988281 488.335938 C 593.988281 485.234375 591.457031 482.714844 588.363281 482.714844 C 585.257812 482.714844 582.738281 485.234375 582.738281 488.335938 L 582.738281 510.417969 L 535.511719 510.417969 L 535.511719 488.335938 C 535.511719 485.234375 532.992188 482.714844 529.886719 482.714844 C 526.78125 482.714844 524.261719 485.234375 524.261719 488.335938 L 524.261719 510.417969 L 477.03125 510.417969 L 477.03125 488.335938 C 477.03125 485.234375 474.511719 482.714844 471.40625 482.714844 C 468.3125 482.714844 465.78125 485.234375 465.78125 488.335938 L 465.78125 510.417969 L 418.566406 510.417969 L 418.566406 488.335938 C 418.566406 485.234375 416.035156 482.714844 412.941406 482.714844 C 409.835938 482.714844 407.316406 485.234375 407.316406 488.335938 L 407.316406 510.417969 L 360.066406 510.417969 L 360.066406 488.335938 C 360.066406 485.234375 357.558594 482.714844 354.441406 482.714844 C 351.347656 482.714844 348.816406 485.234375 348.816406 488.335938 L 348.816406 510.417969 L 301.601562 510.417969 L 301.601562 488.335938 C 301.601562 485.234375 299.070312 482.714844 295.976562 482.714844 C 292.871094 482.714844 290.351562 485.234375 290.351562 488.335938 L 290.351562 510.261719 C 223.851562 508.6875 168.703125 479.535156 168.703125 445.125 Z M 168.703125 445.125 " fill-opacity="1" fill-rule="nonzero"/></g></svg>